<svg xmlns="http://www.w3.org/2000/svg" version="1.1" xmlns:xlink="http://www.w3.org/1999/xlink" xmlns:svgjs="http://svgjs.dev/svgjs" width="1920" height="1080" preserveAspectRatio="none" viewBox="0 0 1920 1080"><g mask="url(&quot;#SvgjsMask1264&quot;)" fill="none"><rect width="1920" height="1080" x="0" y="0" fill="url(&quot;#SvgjsLinearGradient1265&quot;)"></rect><path d="M54.45 648.3L102.95 676.3L102.95 732.3L54.45 760.3L5.95 732.3L5.95 676.3zM199.95 60.3L248.45 88.3L248.45 144.3L199.95 172.3L151.45 144.3L151.45 88.3zM151.45 144.3L199.95 172.3L199.95 228.3L151.45 256.3L102.95 228.3L102.95 172.3zM151.45 480.3L199.95 508.3L199.95 564.3L151.45 592.3L102.95 564.3L102.95 508.3zM248.45 480.3L296.94 508.3L296.94 564.3L248.45 592.3L199.95 564.3L199.95 508.3zM393.94 60.3L442.44 88.3L442.44 144.3L393.94 172.3L345.44 144.3L345.44 88.3zM345.44 648.3L393.94 676.3L393.94 732.3L345.44 760.3L296.94 732.3L296.94 676.3zM539.44 480.3L587.94 508.3L587.94 564.3L539.44 592.3L490.94 564.3L490.94 508.3zM587.94 564.3L636.44 592.3L636.44 648.3L587.94 676.3L539.44 648.3L539.44 592.3zM539.44 816.3L587.94 844.3L587.94 900.3L539.44 928.3L490.94 900.3L490.94 844.3zM684.93 60.3L733.43 88.3L733.43 144.3L684.93 172.3L636.44 144.3L636.44 88.3zM684.93 228.3L733.43 256.3L733.43 312.3L684.93 340.3L636.44 312.3L636.44 256.3zM684.93 564.3L733.43 592.3L733.43 648.3L684.93 676.3L636.44 648.3L636.44 592.3zM684.93 732.3L733.43 760.3L733.43 816.3L684.93 844.3L636.44 816.3L636.44 760.3zM636.44 984.3L684.93 1012.3L684.93 1068.3L636.44 1096.3L587.94 1068.3L587.94 1012.3zM733.43 984.3L781.93 1012.3L781.93 1068.3L733.43 1096.3L684.93 1068.3L684.93 1012.3zM878.93 228.3L927.43 256.3L927.43 312.3L878.93 340.3L830.43 312.3L830.43 256.3zM830.43 312.3L878.93 340.3L878.93 396.3L830.43 424.3L781.93 396.3L781.93 340.3zM878.93 732.3L927.43 760.3L927.43 816.3L878.93 844.3L830.43 816.3L830.43 760.3zM927.43 -23.7L975.93 4.3L975.93 60.3L927.43 88.3L878.93 60.3L878.93 4.3zM975.93 564.3L1024.43 592.3L1024.43 648.3L975.93 676.3L927.43 648.3L927.43 592.3zM1024.43 144.3L1072.92 172.3L1072.92 228.3L1024.43 256.3L975.93 228.3L975.93 172.3zM1072.92 396.3L1121.42 424.3L1121.42 480.3L1072.92 508.3L1024.43 480.3L1024.43 424.3zM1121.42 144.3L1169.92 172.3L1169.92 228.3L1121.42 256.3L1072.92 228.3L1072.92 172.3zM1266.92 60.3L1315.42 88.3L1315.42 144.3L1266.92 172.3L1218.42 144.3L1218.42 88.3zM1266.92 564.3L1315.42 592.3L1315.42 648.3L1266.92 676.3L1218.42 648.3L1218.42 592.3zM1218.42 816.3L1266.92 844.3L1266.92 900.3L1218.42 928.3L1169.92 900.3L1169.92 844.3zM1266.92 1068.3L1315.42 1096.3L1315.42 1152.3L1266.92 1180.3L1218.42 1152.3L1218.42 1096.3zM1363.92 564.3L1412.42 592.3L1412.42 648.3L1363.92 676.3L1315.42 648.3L1315.42 592.3zM1363.92 1068.3L1412.42 1096.3L1412.42 1152.3L1363.92 1180.3L1315.42 1152.3L1315.42 1096.3zM1460.92 60.3L1509.41 88.3L1509.41 144.3L1460.92 172.3L1412.42 144.3L1412.42 88.3zM1412.42 984.3L1460.92 1012.3L1460.92 1068.3L1412.42 1096.3L1363.92 1068.3L1363.92 1012.3zM1557.91 564.3L1606.41 592.3L1606.41 648.3L1557.91 676.3L1509.41 648.3L1509.41 592.3zM1509.41 816.3L1557.91 844.3L1557.91 900.3L1509.41 928.3L1460.92 900.3L1460.92 844.3zM1557.91 1068.3L1606.41 1096.3L1606.41 1152.3L1557.91 1180.3L1509.41 1152.3L1509.41 1096.3zM1606.41 144.3L1654.91 172.3L1654.91 228.3L1606.41 256.3L1557.91 228.3L1557.91 172.3zM1654.91 228.3L1703.41 256.3L1703.41 312.3L1654.91 340.3L1606.41 312.3L1606.41 256.3zM1606.41 648.3L1654.91 676.3L1654.91 732.3L1606.41 760.3L1557.91 732.3L1557.91 676.3zM1751.91 732.3L1800.41 760.3L1800.41 816.3L1751.91 844.3L1703.41 816.3L1703.41 760.3zM1945.9 228.3L1994.4 256.3L1994.4 312.3L1945.9 340.3L1897.4 312.3L1897.4 256.3zM1945.9 396.3L1994.4 424.3L1994.4 480.3L1945.9 508.3L1897.4 480.3L1897.4 424.3zM1945.9 732.3L1994.4 760.3L1994.4 816.3L1945.9 844.3L1897.4 816.3L1897.4 760.3zM1897.4 816.3L1945.9 844.3L1945.9 900.3L1897.4 928.3L1848.91 900.3L1848.91 844.3z" stroke="rgba(32, 23, 255, 1)" stroke-width="2"></path></g><defs><mask id="SvgjsMask1264"><rect width="1920" height="1080" fill="#ffffff"></rect></mask><linearGradient x1="89.06%" y1="119.44%" x2="10.94%" y2="-19.44%" gradientUnits="userSpaceOnUse" id="SvgjsLinearGradient1265"><stop stop-color="#0e2a47" offset="0"></stop><stop stop-color="rgba(0, 5, 13, 1)" offset="1"></stop></linearGradient></defs></svg>