<svg xmlns="http://www.w3.org/2000/svg" version="1.1" xmlns:xlink="http://www.w3.org/1999/xlink" xmlns:svgjs="http://svgjs.dev/svgjs" width="1500" height="1550" preserveAspectRatio="none" viewBox="0 0 1500 1550"><g mask="url(&quot;#SvgjsMask2088&quot;)" fill="none"><rect width="1500" height="1550" x="0" y="0" fill="url(&quot;#SvgjsLinearGradient2089&quot;)"></rect><path d="M211.74 575.62L351.18 656.12L351.18 817.12L211.74 897.62L72.31 817.12L72.31 656.12zM211.74 1058.62L351.18 1139.12L351.18 1300.12L211.74 1380.62L72.31 1300.12L72.31 1139.12zM490.61 92.62L630.05 173.12L630.05 334.12L490.61 414.62L351.18 334.12L351.18 173.12zM490.61 1058.62L630.05 1139.12L630.05 1300.12L490.61 1380.62L351.18 1300.12L351.18 1139.12zM351.18 1300.12L490.61 1380.62L490.61 1541.62L351.18 1622.12L211.74 1541.62L211.74 1380.62zM630.05 334.12L769.48 414.62L769.48 575.62L630.05 656.12L490.61 575.62L490.61 414.62zM769.48 575.62L908.91 656.12L908.91 817.12L769.48 897.62L630.05 817.12L630.05 656.12zM630.05 1300.12L769.48 1380.62L769.48 1541.62L630.05 1622.12L490.61 1541.62L490.61 1380.62zM1048.35 92.62L1187.78 173.12L1187.78 334.12L1048.35 414.62L908.91 334.12L908.91 173.12zM1048.35 575.62L1187.78 656.12L1187.78 817.12L1048.35 897.62L908.91 817.12L908.91 656.12zM908.91 817.12L1048.35 897.62L1048.35 1058.62L908.91 1139.12L769.48 1058.62L769.48 897.62zM1048.35 1058.62L1187.78 1139.12L1187.78 1300.12L1048.35 1380.62L908.91 1300.12L908.91 1139.12zM908.91 1300.12L1048.35 1380.62L1048.35 1541.62L908.91 1622.12L769.48 1541.62L769.48 1380.62zM1187.78 334.12L1327.22 414.62L1327.22 575.62L1187.78 656.12L1048.35 575.62L1048.35 414.62zM1327.22 1058.62L1466.65 1139.12L1466.65 1300.12L1327.22 1380.62L1187.78 1300.12L1187.78 1139.12zM1466.65 334.12L1606.08 414.62L1606.08 575.62L1466.65 656.12L1327.22 575.62L1327.22 414.62zM1606.08 1058.62L1745.52 1139.12L1745.52 1300.12L1606.08 1380.62L1466.65 1300.12L1466.65 1139.12zM1466.65 1300.12L1606.08 1380.62L1606.08 1541.62L1466.65 1622.12L1327.22 1541.62L1327.22 1380.62z" stroke="rgba(0, 0, 0, 0)" stroke-width="2"></path><path d="M195.64 575.62 a16.1 16.1 0 1 0 32.2 0 a16.1 16.1 0 1 0 -32.2 0zM335.08 656.12 a16.1 16.1 0 1 0 32.2 0 a16.1 16.1 0 1 0 -32.2 0zM335.08 817.12 a16.1 16.1 0 1 0 32.2 0 a16.1 16.1 0 1 0 -32.2 0zM195.64 897.62 a16.1 16.1 0 1 0 32.2 0 a16.1 16.1 0 1 0 -32.2 0zM56.21 817.12 a16.1 16.1 0 1 0 32.2 0 a16.1 16.1 0 1 0 -32.2 0zM56.21 656.12 a16.1 16.1 0 1 0 32.2 0 a16.1 16.1 0 1 0 -32.2 0zM195.64 1058.62 a16.1 16.1 0 1 0 32.2 0 a16.1 16.1 0 1 0 -32.2 0zM335.08 1139.12 a16.1 16.1 0 1 0 32.2 0 a16.1 16.1 0 1 0 -32.2 0zM335.08 1300.12 a16.1 16.1 0 1 0 32.2 0 a16.1 16.1 0 1 0 -32.2 0zM195.64 1380.62 a16.1 16.1 0 1 0 32.2 0 a16.1 16.1 0 1 0 -32.2 0zM56.21 1300.12 a16.1 16.1 0 1 0 32.2 0 a16.1 16.1 0 1 0 -32.2 0zM56.21 1139.12 a16.1 16.1 0 1 0 32.2 0 a16.1 16.1 0 1 0 -32.2 0zM474.51 92.62 a16.1 16.1 0 1 0 32.2 0 a16.1 16.1 0 1 0 -32.2 0zM613.95 173.12 a16.1 16.1 0 1 0 32.2 0 a16.1 16.1 0 1 0 -32.2 0zM613.95 334.12 a16.1 16.1 0 1 0 32.2 0 a16.1 16.1 0 1 0 -32.2 0zM474.51 414.62 a16.1 16.1 0 1 0 32.2 0 a16.1 16.1 0 1 0 -32.2 0zM335.08 334.12 a16.1 16.1 0 1 0 32.2 0 a16.1 16.1 0 1 0 -32.2 0zM335.08 173.12 a16.1 16.1 0 1 0 32.2 0 a16.1 16.1 0 1 0 -32.2 0zM474.51 1058.62 a16.1 16.1 0 1 0 32.2 0 a16.1 16.1 0 1 0 -32.2 0zM613.95 1139.12 a16.1 16.1 0 1 0 32.2 0 a16.1 16.1 0 1 0 -32.2 0zM613.95 1300.12 a16.1 16.1 0 1 0 32.2 0 a16.1 16.1 0 1 0 -32.2 0zM474.51 1380.62 a16.1 16.1 0 1 0 32.2 0 a16.1 16.1 0 1 0 -32.2 0zM474.51 1541.62 a16.1 16.1 0 1 0 32.2 0 a16.1 16.1 0 1 0 -32.2 0zM335.08 1622.12 a16.1 16.1 0 1 0 32.2 0 a16.1 16.1 0 1 0 -32.2 0zM195.64 1541.62 a16.1 16.1 0 1 0 32.2 0 a16.1 16.1 0 1 0 -32.2 0zM753.38 414.62 a16.1 16.1 0 1 0 32.2 0 a16.1 16.1 0 1 0 -32.2 0zM753.38 575.62 a16.1 16.1 0 1 0 32.2 0 a16.1 16.1 0 1 0 -32.2 0zM613.95 656.12 a16.1 16.1 0 1 0 32.2 0 a16.1 16.1 0 1 0 -32.2 0zM474.51 575.62 a16.1 16.1 0 1 0 32.2 0 a16.1 16.1 0 1 0 -32.2 0zM892.81 656.12 a16.1 16.1 0 1 0 32.2 0 a16.1 16.1 0 1 0 -32.2 0zM892.81 817.12 a16.1 16.1 0 1 0 32.2 0 a16.1 16.1 0 1 0 -32.2 0zM753.38 897.62 a16.1 16.1 0 1 0 32.2 0 a16.1 16.1 0 1 0 -32.2 0zM613.95 817.12 a16.1 16.1 0 1 0 32.2 0 a16.1 16.1 0 1 0 -32.2 0zM753.38 1380.62 a16.1 16.1 0 1 0 32.2 0 a16.1 16.1 0 1 0 -32.2 0zM753.38 1541.62 a16.1 16.1 0 1 0 32.2 0 a16.1 16.1 0 1 0 -32.2 0zM613.95 1622.12 a16.1 16.1 0 1 0 32.2 0 a16.1 16.1 0 1 0 -32.2 0zM1032.25 92.62 a16.1 16.1 0 1 0 32.2 0 a16.1 16.1 0 1 0 -32.2 0zM1171.68 173.12 a16.1 16.1 0 1 0 32.2 0 a16.1 16.1 0 1 0 -32.2 0zM1171.68 334.12 a16.1 16.1 0 1 0 32.2 0 a16.1 16.1 0 1 0 -32.2 0zM1032.25 414.62 a16.1 16.1 0 1 0 32.2 0 a16.1 16.1 0 1 0 -32.2 0zM892.81 334.12 a16.1 16.1 0 1 0 32.2 0 a16.1 16.1 0 1 0 -32.2 0zM892.81 173.12 a16.1 16.1 0 1 0 32.2 0 a16.1 16.1 0 1 0 -32.2 0zM1032.25 575.62 a16.1 16.1 0 1 0 32.2 0 a16.1 16.1 0 1 0 -32.2 0zM1171.68 656.12 a16.1 16.1 0 1 0 32.2 0 a16.1 16.1 0 1 0 -32.2 0zM1171.68 817.12 a16.1 16.1 0 1 0 32.2 0 a16.1 16.1 0 1 0 -32.2 0zM1032.25 897.62 a16.1 16.1 0 1 0 32.2 0 a16.1 16.1 0 1 0 -32.2 0zM1032.25 1058.62 a16.1 16.1 0 1 0 32.2 0 a16.1 16.1 0 1 0 -32.2 0zM892.81 1139.12 a16.1 16.1 0 1 0 32.2 0 a16.1 16.1 0 1 0 -32.2 0zM753.38 1058.62 a16.1 16.1 0 1 0 32.2 0 a16.1 16.1 0 1 0 -32.2 0zM1171.68 1139.12 a16.1 16.1 0 1 0 32.2 0 a16.1 16.1 0 1 0 -32.2 0zM1171.68 1300.12 a16.1 16.1 0 1 0 32.2 0 a16.1 16.1 0 1 0 -32.2 0zM1032.25 1380.62 a16.1 16.1 0 1 0 32.2 0 a16.1 16.1 0 1 0 -32.2 0zM892.81 1300.12 a16.1 16.1 0 1 0 32.2 0 a16.1 16.1 0 1 0 -32.2 0zM1032.25 1541.62 a16.1 16.1 0 1 0 32.2 0 a16.1 16.1 0 1 0 -32.2 0zM892.81 1622.12 a16.1 16.1 0 1 0 32.2 0 a16.1 16.1 0 1 0 -32.2 0zM1311.12 414.62 a16.1 16.1 0 1 0 32.2 0 a16.1 16.1 0 1 0 -32.2 0zM1311.12 575.62 a16.1 16.1 0 1 0 32.2 0 a16.1 16.1 0 1 0 -32.2 0zM1311.12 1058.62 a16.1 16.1 0 1 0 32.2 0 a16.1 16.1 0 1 0 -32.2 0zM1450.55 1139.12 a16.1 16.1 0 1 0 32.2 0 a16.1 16.1 0 1 0 -32.2 0zM1450.55 1300.12 a16.1 16.1 0 1 0 32.2 0 a16.1 16.1 0 1 0 -32.2 0zM1311.12 1380.62 a16.1 16.1 0 1 0 32.2 0 a16.1 16.1 0 1 0 -32.2 0zM1450.55 334.12 a16.1 16.1 0 1 0 32.2 0 a16.1 16.1 0 1 0 -32.2 0zM1589.98 414.62 a16.1 16.1 0 1 0 32.2 0 a16.1 16.1 0 1 0 -32.2 0zM1589.98 575.62 a16.1 16.1 0 1 0 32.2 0 a16.1 16.1 0 1 0 -32.2 0zM1450.55 656.12 a16.1 16.1 0 1 0 32.2 0 a16.1 16.1 0 1 0 -32.2 0zM1589.98 1058.62 a16.1 16.1 0 1 0 32.2 0 a16.1 16.1 0 1 0 -32.2 0zM1729.42 1139.12 a16.1 16.1 0 1 0 32.2 0 a16.1 16.1 0 1 0 -32.2 0zM1729.42 1300.12 a16.1 16.1 0 1 0 32.2 0 a16.1 16.1 0 1 0 -32.2 0zM1589.98 1380.62 a16.1 16.1 0 1 0 32.2 0 a16.1 16.1 0 1 0 -32.2 0zM1589.98 1541.62 a16.1 16.1 0 1 0 32.2 0 a16.1 16.1 0 1 0 -32.2 0zM1450.55 1622.12 a16.1 16.1 0 1 0 32.2 0 a16.1 16.1 0 1 0 -32.2 0zM1311.12 1541.62 a16.1 16.1 0 1 0 32.2 0 a16.1 16.1 0 1 0 -32.2 0z" fill="rgba(0, 0, 0, 0)"></path><path d="M32.95 -3.77L64.13 14.23L64.13 50.23L32.95 68.23L1.77 50.23L1.77 14.23zM32.95 428.23L64.13 446.23L64.13 482.23L32.95 500.23L1.77 482.23L1.77 446.23zM64.13 482.23L95.31 500.23L95.31 536.23L64.13 554.23L32.95 536.23L32.95 500.23zM64.13 698.23L95.31 716.23L95.31 752.23L64.13 770.23L32.95 752.23L32.95 716.23zM64.13 806.23L95.31 824.23L95.31 860.23L64.13 878.23L32.95 860.23L32.95 824.23zM32.95 1184.23L64.13 1202.23L64.13 1238.23L32.95 1256.23L1.77 1238.23L1.77 1202.23zM126.48 50.23L157.66 68.23L157.66 104.23L126.48 122.23L95.31 104.23L95.31 68.23zM95.31 968.23L126.48 986.23L126.48 1022.23L95.31 1040.23L64.13 1022.23L64.13 986.23zM188.84 50.23L220.02 68.23L220.02 104.23L188.84 122.23L157.66 104.23L157.66 68.23zM157.66 104.23L188.84 122.23L188.84 158.23L157.66 176.23L126.48 158.23L126.48 122.23zM157.66 320.23L188.84 338.23L188.84 374.23L157.66 392.23L126.48 374.23L126.48 338.23zM157.66 752.23L188.84 770.23L188.84 806.23L157.66 824.23L126.48 806.23L126.48 770.23zM157.66 968.23L188.84 986.23L188.84 1022.23L157.66 1040.23L126.48 1022.23L126.48 986.23zM157.66 1184.23L188.84 1202.23L188.84 1238.23L157.66 1256.23L126.48 1238.23L126.48 1202.23zM157.66 1400.23L188.84 1418.23L188.84 1454.23L157.66 1472.23L126.48 1454.23L126.48 1418.23zM157.66 1508.23L188.84 1526.23L188.84 1562.23L157.66 1580.23L126.48 1562.23L126.48 1526.23zM251.19 266.23L282.37 284.23L282.37 320.23L251.19 338.23L220.02 320.23L220.02 284.23zM251.19 482.23L282.37 500.23L282.37 536.23L251.19 554.23L220.02 536.23L220.02 500.23zM251.19 698.23L282.37 716.23L282.37 752.23L251.19 770.23L220.02 752.23L220.02 716.23zM251.19 1238.23L282.37 1256.23L282.37 1292.23L251.19 1310.23L220.02 1292.23L220.02 1256.23zM251.19 1454.23L282.37 1472.23L282.37 1508.23L251.19 1526.23L220.02 1508.23L220.02 1472.23zM220.02 1508.23L251.19 1526.23L251.19 1562.23L220.02 1580.23L188.84 1562.23L188.84 1526.23zM313.55 50.23L344.73 68.23L344.73 104.23L313.55 122.23L282.37 104.23L282.37 68.23zM313.55 374.23L344.73 392.23L344.73 428.23L313.55 446.23L282.37 428.23L282.37 392.23zM313.55 806.23L344.73 824.23L344.73 860.23L313.55 878.23L282.37 860.23L282.37 824.23zM313.55 1130.23L344.73 1148.23L344.73 1184.23L313.55 1202.23L282.37 1184.23L282.37 1148.23zM282.37 1292.23L313.55 1310.23L313.55 1346.23L282.37 1364.23L251.19 1346.23L251.19 1310.23zM344.73 104.23L375.91 122.23L375.91 158.23L344.73 176.23L313.55 158.23L313.55 122.23zM344.73 536.23L375.91 554.23L375.91 590.23L344.73 608.23L313.55 590.23L313.55 554.23zM375.91 1346.23L407.08 1364.23L407.08 1400.23L375.91 1418.23L344.73 1400.23L344.73 1364.23zM375.91 1562.23L407.08 1580.23L407.08 1616.23L375.91 1634.23L344.73 1616.23L344.73 1580.23zM407.08 428.23L438.26 446.23L438.26 482.23L407.08 500.23L375.91 482.23L375.91 446.23zM438.26 590.23L469.44 608.23L469.44 644.23L438.26 662.23L407.08 644.23L407.08 608.23zM469.44 104.23L500.62 122.23L500.62 158.23L469.44 176.23L438.26 158.23L438.26 122.23zM469.44 428.23L500.62 446.23L500.62 482.23L469.44 500.23L438.26 482.23L438.26 446.23zM500.62 590.23L531.79 608.23L531.79 644.23L500.62 662.23L469.44 644.23L469.44 608.23zM469.44 752.23L500.62 770.23L500.62 806.23L469.44 824.23L438.26 806.23L438.26 770.23zM500.62 914.23L531.79 932.23L531.79 968.23L500.62 986.23L469.44 968.23L469.44 932.23zM469.44 1184.23L500.62 1202.23L500.62 1238.23L469.44 1256.23L438.26 1238.23L438.26 1202.23zM469.44 1400.23L500.62 1418.23L500.62 1454.23L469.44 1472.23L438.26 1454.23L438.26 1418.23zM500.62 1454.23L531.79 1472.23L531.79 1508.23L500.62 1526.23L469.44 1508.23L469.44 1472.23zM531.79 104.23L562.97 122.23L562.97 158.23L531.79 176.23L500.62 158.23L500.62 122.23zM562.97 158.23L594.15 176.23L594.15 212.23L562.97 230.23L531.79 212.23L531.79 176.23zM531.79 212.23L562.97 230.23L562.97 266.23L531.79 284.23L500.62 266.23L500.62 230.23zM531.79 320.23L562.97 338.23L562.97 374.23L531.79 392.23L500.62 374.23L500.62 338.23zM562.97 482.23L594.15 500.23L594.15 536.23L562.97 554.23L531.79 536.23L531.79 500.23zM531.79 644.23L562.97 662.23L562.97 698.23L531.79 716.23L500.62 698.23L500.62 662.23zM562.97 1562.23L594.15 1580.23L594.15 1616.23L562.97 1634.23L531.79 1616.23L531.79 1580.23zM594.15 536.23L625.33 554.23L625.33 590.23L594.15 608.23L562.97 590.23L562.97 554.23zM625.33 1130.23L656.51 1148.23L656.51 1184.23L625.33 1202.23L594.15 1184.23L594.15 1148.23zM625.33 1238.23L656.51 1256.23L656.51 1292.23L625.33 1310.23L594.15 1292.23L594.15 1256.23zM687.68 158.23L718.86 176.23L718.86 212.23L687.68 230.23L656.51 212.23L656.51 176.23zM656.51 320.23L687.68 338.23L687.68 374.23L656.51 392.23L625.33 374.23L625.33 338.23zM656.51 536.23L687.68 554.23L687.68 590.23L656.51 608.23L625.33 590.23L625.33 554.23zM687.68 1022.23L718.86 1040.23L718.86 1076.23L687.68 1094.23L656.51 1076.23L656.51 1040.23zM656.51 1076.23L687.68 1094.23L687.68 1130.23L656.51 1148.23L625.33 1130.23L625.33 1094.23zM656.51 1184.23L687.68 1202.23L687.68 1238.23L656.51 1256.23L625.33 1238.23L625.33 1202.23zM656.51 1292.23L687.68 1310.23L687.68 1346.23L656.51 1364.23L625.33 1346.23L625.33 1310.23zM750.04 482.23L781.22 500.23L781.22 536.23L750.04 554.23L718.86 536.23L718.86 500.23zM718.86 644.23L750.04 662.23L750.04 698.23L718.86 716.23L687.68 698.23L687.68 662.23zM750.04 914.23L781.22 932.23L781.22 968.23L750.04 986.23L718.86 968.23L718.86 932.23zM750.04 1130.23L781.22 1148.23L781.22 1184.23L750.04 1202.23L718.86 1184.23L718.86 1148.23zM750.04 1454.23L781.22 1472.23L781.22 1508.23L750.04 1526.23L718.86 1508.23L718.86 1472.23zM718.86 1508.23L750.04 1526.23L750.04 1562.23L718.86 1580.23L687.68 1562.23L687.68 1526.23zM781.22 -3.77L812.4 14.23L812.4 50.23L781.22 68.23L750.04 50.23L750.04 14.23zM812.4 158.23L843.57 176.23L843.57 212.23L812.4 230.23L781.22 212.23L781.22 176.23zM812.4 266.23L843.57 284.23L843.57 320.23L812.4 338.23L781.22 320.23L781.22 284.23zM781.22 320.23L812.4 338.23L812.4 374.23L781.22 392.23L750.04 374.23L750.04 338.23zM781.22 428.23L812.4 446.23L812.4 482.23L781.22 500.23L750.04 482.23L750.04 446.23zM781.22 536.23L812.4 554.23L812.4 590.23L781.22 608.23L750.04 590.23L750.04 554.23zM781.22 644.23L812.4 662.23L812.4 698.23L781.22 716.23L750.04 698.23L750.04 662.23zM812.4 1022.23L843.57 1040.23L843.57 1076.23L812.4 1094.23L781.22 1076.23L781.22 1040.23zM781.22 1076.23L812.4 1094.23L812.4 1130.23L781.22 1148.23L750.04 1130.23L750.04 1094.23zM812.4 1346.23L843.57 1364.23L843.57 1400.23L812.4 1418.23L781.22 1400.23L781.22 1364.23zM812.4 1454.23L843.57 1472.23L843.57 1508.23L812.4 1526.23L781.22 1508.23L781.22 1472.23zM874.75 914.23L905.93 932.23L905.93 968.23L874.75 986.23L843.57 968.23L843.57 932.23zM843.57 968.23L874.75 986.23L874.75 1022.23L843.57 1040.23L812.39 1022.23L812.39 986.23zM874.75 1238.23L905.93 1256.23L905.93 1292.23L874.75 1310.23L843.57 1292.23L843.57 1256.23zM874.75 1346.23L905.93 1364.23L905.93 1400.23L874.75 1418.23L843.57 1400.23L843.57 1364.23zM874.75 1454.23L905.93 1472.23L905.93 1508.23L874.75 1526.23L843.57 1508.23L843.57 1472.23zM937.11 50.23L968.28 68.23L968.28 104.23L937.11 122.23L905.93 104.23L905.93 68.23zM937.11 158.23L968.28 176.23L968.28 212.23L937.11 230.23L905.93 212.23L905.93 176.23zM937.11 482.23L968.28 500.23L968.28 536.23L937.11 554.23L905.93 536.23L905.93 500.23zM937.11 590.23L968.28 608.23L968.28 644.23L937.11 662.23L905.93 644.23L905.93 608.23zM905.93 644.23L937.11 662.23L937.11 698.23L905.93 716.23L874.75 698.23L874.75 662.23zM937.11 698.23L968.28 716.23L968.28 752.23L937.11 770.23L905.93 752.23L905.93 716.23zM937.11 1022.23L968.28 1040.23L968.28 1076.23L937.11 1094.23L905.93 1076.23L905.93 1040.23zM905.93 1292.23L937.11 1310.23L937.11 1346.23L905.93 1364.23L874.75 1346.23L874.75 1310.23zM905.93 1508.23L937.11 1526.23L937.11 1562.23L905.93 1580.23L874.75 1562.23L874.75 1526.23zM968.28 -3.77L999.46 14.23L999.46 50.23L968.28 68.23L937.11 50.23L937.11 14.23zM968.28 212.23L999.46 230.23L999.46 266.23L968.28 284.23L937.11 266.23L937.11 230.23zM968.28 428.23L999.46 446.23L999.46 482.23L968.28 500.23L937.11 482.23L937.11 446.23zM968.28 536.23L999.46 554.23L999.46 590.23L968.28 608.23L937.11 590.23L937.11 554.23zM999.46 698.23L1030.64 716.23L1030.64 752.23L999.46 770.23L968.28 752.23L968.28 716.23zM999.46 1130.23L1030.64 1148.23L1030.64 1184.23L999.46 1202.23L968.28 1184.23L968.28 1148.23zM999.46 1562.23L1030.64 1580.23L1030.64 1616.23L999.46 1634.23L968.28 1616.23L968.28 1580.23zM1030.64 104.23L1061.82 122.23L1061.82 158.23L1030.64 176.23L999.46 158.23L999.46 122.23zM1061.82 914.23L1093 932.23L1093 968.23L1061.82 986.23L1030.64 968.23L1030.64 932.23zM1030.64 968.23L1061.82 986.23L1061.82 1022.23L1030.64 1040.23L999.46 1022.23L999.46 986.23zM1093 104.23L1124.17 122.23L1124.17 158.23L1093 176.23L1061.82 158.23L1061.82 122.23zM1093 428.23L1124.17 446.23L1124.17 482.23L1093 500.23L1061.82 482.23L1061.82 446.23zM1124.17 1238.23L1155.35 1256.23L1155.35 1292.23L1124.17 1310.23L1093 1292.23L1093 1256.23zM1124.17 1562.23L1155.35 1580.23L1155.35 1616.23L1124.17 1634.23L1093 1616.23L1093 1580.23zM1155.35 104.23L1186.53 122.23L1186.53 158.23L1155.35 176.23L1124.17 158.23L1124.17 122.23zM1155.35 320.23L1186.53 338.23L1186.53 374.23L1155.35 392.23L1124.17 374.23L1124.17 338.23zM1186.53 1022.23L1217.71 1040.23L1217.71 1076.23L1186.53 1094.23L1155.35 1076.23L1155.35 1040.23zM1155.35 1184.23L1186.53 1202.23L1186.53 1238.23L1155.35 1256.23L1124.17 1238.23L1124.17 1202.23zM1186.53 1238.23L1217.71 1256.23L1217.71 1292.23L1186.53 1310.23L1155.35 1292.23L1155.35 1256.23zM1248.88 482.23L1280.06 500.23L1280.06 536.23L1248.88 554.23L1217.71 536.23L1217.71 500.23zM1217.71 536.23L1248.88 554.23L1248.88 590.23L1217.71 608.23L1186.53 590.23L1186.53 554.23zM1248.88 1022.23L1280.06 1040.23L1280.06 1076.23L1248.88 1094.23L1217.71 1076.23L1217.71 1040.23zM1217.71 1400.23L1248.88 1418.23L1248.88 1454.23L1217.71 1472.23L1186.53 1454.23L1186.53 1418.23zM1248.88 1454.23L1280.06 1472.23L1280.06 1508.23L1248.88 1526.23L1217.71 1508.23L1217.71 1472.23zM1311.24 1130.23L1342.42 1148.23L1342.42 1184.23L1311.24 1202.23L1280.06 1184.23L1280.06 1148.23zM1311.24 1454.23L1342.42 1472.23L1342.42 1508.23L1311.24 1526.23L1280.06 1508.23L1280.06 1472.23zM1373.6 590.23L1404.77 608.23L1404.77 644.23L1373.6 662.23L1342.42 644.23L1342.42 608.23zM1342.42 860.23L1373.6 878.23L1373.6 914.23L1342.42 932.23L1311.24 914.23L1311.24 878.23zM1373.6 914.23L1404.77 932.23L1404.77 968.23L1373.6 986.23L1342.42 968.23L1342.42 932.23zM1342.42 968.23L1373.6 986.23L1373.6 1022.23L1342.42 1040.23L1311.24 1022.23L1311.24 986.23zM1373.6 1238.23L1404.77 1256.23L1404.77 1292.23L1373.6 1310.23L1342.42 1292.23L1342.42 1256.23zM1342.42 1508.23L1373.6 1526.23L1373.6 1562.23L1342.42 1580.23L1311.24 1562.23L1311.24 1526.23zM1435.95 50.23L1467.13 68.23L1467.13 104.23L1435.95 122.23L1404.77 104.23L1404.77 68.23zM1404.77 1400.23L1435.95 1418.23L1435.95 1454.23L1404.77 1472.23L1373.6 1454.23L1373.6 1418.23zM1498.31 266.23L1529.48 284.23L1529.48 320.23L1498.31 338.23L1467.13 320.23L1467.13 284.23zM1498.31 482.23L1529.48 500.23L1529.48 536.23L1498.31 554.23L1467.13 536.23L1467.13 500.23zM1467.13 752.23L1498.31 770.23L1498.31 806.23L1467.13 824.23L1435.95 806.23L1435.95 770.23zM1498.31 806.23L1529.48 824.23L1529.48 860.23L1498.31 878.23L1467.13 860.23L1467.13 824.23zM1498.31 914.23L1529.48 932.23L1529.48 968.23L1498.31 986.23L1467.13 968.23L1467.13 932.23zM1467.13 968.23L1498.31 986.23L1498.31 1022.23L1467.13 1040.23L1435.95 1022.23L1435.95 986.23zM1467.13 1400.23L1498.31 1418.23L1498.31 1454.23L1467.13 1472.23L1435.95 1454.23L1435.95 1418.23zM1498.31 1562.23L1529.48 1580.23L1529.48 1616.23L1498.31 1634.23L1467.13 1616.23L1467.13 1580.23zM1529.48 -3.77L1560.66 14.23L1560.66 50.23L1529.48 68.23L1498.31 50.23L1498.31 14.23zM1560.66 158.23L1591.84 176.23L1591.84 212.23L1560.66 230.23L1529.48 212.23L1529.48 176.23zM1529.48 320.23L1560.66 338.23L1560.66 374.23L1529.48 392.23L1498.31 374.23L1498.31 338.23zM1560.66 590.23L1591.84 608.23L1591.84 644.23L1560.66 662.23L1529.48 644.23L1529.48 608.23zM1560.66 1022.23L1591.84 1040.23L1591.84 1076.23L1560.66 1094.23L1529.48 1076.23L1529.48 1040.23zM1529.48 1292.23L1560.66 1310.23L1560.66 1346.23L1529.48 1364.23L1498.31 1346.23L1498.31 1310.23zM1560.66 1346.23L1591.84 1364.23L1591.84 1400.23L1560.66 1418.23L1529.48 1400.23L1529.48 1364.23z" stroke="rgba(0, 69, 158, 1)" stroke-width="2"></path></g><defs><mask id="SvgjsMask2088"><rect width="1500" height="1550" fill="#ffffff"></rect></mask><linearGradient x1="-0.83%" y1="0.81%" x2="100.83%" y2="99.19%" gradientUnits="userSpaceOnUse" id="SvgjsLinearGradient2089"><stop stop-color="#0e2a47" offset="0"></stop><stop stop-color="rgba(6, 15, 27, 1)" offset="1"></stop></linearGradient></defs></svg>