<svg xmlns="http://www.w3.org/2000/svg" version="1.1" xmlns:xlink="http://www.w3.org/1999/xlink" xmlns:svgjs="http://svgjs.dev/svgjs" width="1920" height="1080" preserveAspectRatio="none" viewBox="0 0 1920 1080"><g mask="url(&quot;#SvgjsMask3117&quot;)" fill="none"><rect width="1920" height="1080" x="0" y="0" fill="url(&quot;#SvgjsLinearGradient3118&quot;)"></rect><path d="M11.79 -41.37L139.97 32.63L139.97 180.63L11.79 254.63L-116.39 180.63L-116.39 32.63zM139.97 624.63L268.14 698.63L268.14 846.63L139.97 920.63L11.79 846.63L11.79 698.63zM652.67 1068.63L780.84 1142.63L780.84 1290.63L652.67 1364.63L524.49 1290.63L524.49 1142.63zM909.02 624.63L1037.19 698.63L1037.19 846.63L909.02 920.63L780.84 846.63L780.84 698.63zM1421.72 1068.63L1549.89 1142.63L1549.89 1290.63L1421.72 1364.63L1293.54 1290.63L1293.54 1142.63zM1678.07 1068.63L1806.25 1142.63L1806.25 1290.63L1678.07 1364.63L1549.89 1290.63L1549.89 1142.63zM1806.25 -41.37L1934.42 32.63L1934.42 180.63L1806.25 254.63L1678.07 180.63L1678.07 32.63z" stroke="rgba(0, 0, 0, 0)" stroke-width="2"></path><path d="M7.03 -15.66L46 6.84L46 51.84L7.03 74.34L-31.94 51.84L-31.94 6.84zM46 51.84L84.97 74.34L84.97 119.34L46 141.84L7.03 119.34L7.03 74.34zM46 726.84L84.97 749.34L84.97 794.34L46 816.84L7.03 794.34L7.03 749.34zM7.03 794.34L46 816.84L46 861.84L7.03 884.34L-31.94 861.84L-31.94 816.84zM46 861.84L84.97 884.34L84.97 929.34L46 951.84L7.03 929.34L7.03 884.34zM46 996.84L84.97 1019.34L84.97 1064.34L46 1086.84L7.03 1064.34L7.03 1019.34zM123.95 186.84L162.92 209.34L162.92 254.34L123.95 276.84L84.97 254.34L84.97 209.34zM123.95 456.84L162.92 479.34L162.92 524.34L123.95 546.84L84.97 524.34L84.97 479.34zM162.92 254.34L201.89 276.84L201.89 321.84L162.92 344.34L123.95 321.84L123.95 276.84zM201.89 456.84L240.86 479.34L240.86 524.34L201.89 546.84L162.92 524.34L162.92 479.34zM162.92 524.34L201.89 546.84L201.89 591.84L162.92 614.34L123.95 591.84L123.95 546.84zM162.92 929.34L201.89 951.84L201.89 996.84L162.92 1019.34L123.95 996.84L123.95 951.84zM162.92 1064.34L201.89 1086.84L201.89 1131.84L162.92 1154.34L123.95 1131.84L123.95 1086.84zM279.84 51.84L318.81 74.34L318.81 119.34L279.84 141.84L240.86 119.34L240.86 74.34zM240.86 119.34L279.84 141.84L279.84 186.84L240.86 209.34L201.89 186.84L201.89 141.84zM279.84 186.84L318.81 209.34L318.81 254.34L279.84 276.84L240.86 254.34L240.86 209.34zM240.86 254.34L279.84 276.84L279.84 321.84L240.86 344.34L201.89 321.84L201.89 276.84zM240.86 389.34L279.84 411.84L279.84 456.84L240.86 479.34L201.89 456.84L201.89 411.84zM240.86 524.34L279.84 546.84L279.84 591.84L240.86 614.34L201.89 591.84L201.89 546.84zM240.86 794.34L279.84 816.84L279.84 861.84L240.86 884.34L201.89 861.84L201.89 816.84zM357.78 321.84L396.75 344.34L396.75 389.34L357.78 411.84L318.81 389.34L318.81 344.34zM318.81 659.34L357.78 681.84L357.78 726.84L318.81 749.34L279.84 726.84L279.84 681.84zM318.81 794.34L357.78 816.84L357.78 861.84L318.81 884.34L279.84 861.84L279.84 816.84zM318.81 1064.34L357.78 1086.84L357.78 1131.84L318.81 1154.34L279.84 1131.84L279.84 1086.84zM435.72 456.84L474.7 479.34L474.7 524.34L435.72 546.84L396.75 524.34L396.75 479.34zM435.72 726.84L474.7 749.34L474.7 794.34L435.72 816.84L396.75 794.34L396.75 749.34zM396.75 794.34L435.72 816.84L435.72 861.84L396.75 884.34L357.78 861.84L357.78 816.84zM396.75 929.34L435.72 951.84L435.72 996.84L396.75 1019.34L357.78 996.84L357.78 951.84zM513.67 186.84L552.64 209.34L552.64 254.34L513.67 276.84L474.7 254.34L474.7 209.34zM474.7 254.34L513.67 276.84L513.67 321.84L474.7 344.34L435.72 321.84L435.72 276.84zM474.7 659.34L513.67 681.84L513.67 726.84L474.7 749.34L435.72 726.84L435.72 681.84zM513.67 861.84L552.64 884.34L552.64 929.34L513.67 951.84L474.7 929.34L474.7 884.34zM552.64 119.34L591.61 141.84L591.61 186.84L552.64 209.34L513.67 186.84L513.67 141.84zM552.64 389.34L591.61 411.84L591.61 456.84L552.64 479.34L513.67 456.84L513.67 411.84zM591.61 456.84L630.59 479.34L630.59 524.34L591.61 546.84L552.64 524.34L552.64 479.34zM552.64 929.34L591.61 951.84L591.61 996.84L552.64 1019.34L513.67 996.84L513.67 951.84zM552.64 1064.34L591.61 1086.84L591.61 1131.84L552.64 1154.34L513.67 1131.84L513.67 1086.84zM630.59 254.34L669.56 276.84L669.56 321.84L630.59 344.34L591.61 321.84L591.61 276.84zM669.56 456.84L708.53 479.34L708.53 524.34L669.56 546.84L630.59 524.34L630.59 479.34zM630.59 524.34L669.56 546.84L669.56 591.84L630.59 614.34L591.61 591.84L591.61 546.84zM708.53 389.34L747.5 411.84L747.5 456.84L708.53 479.34L669.56 456.84L669.56 411.84zM747.5 456.84L786.48 479.34L786.48 524.34L747.5 546.84L708.53 524.34L708.53 479.34zM708.53 659.34L747.5 681.84L747.5 726.84L708.53 749.34L669.56 726.84L669.56 681.84zM708.53 1064.34L747.5 1086.84L747.5 1131.84L708.53 1154.34L669.56 1131.84L669.56 1086.84zM786.48 -15.66L825.45 6.84L825.45 51.84L786.48 74.34L747.5 51.84L747.5 6.84zM786.48 119.34L825.45 141.84L825.45 186.84L786.48 209.34L747.5 186.84L747.5 141.84zM786.48 389.34L825.45 411.84L825.45 456.84L786.48 479.34L747.5 456.84L747.5 411.84zM825.45 861.84L864.42 884.34L864.42 929.34L825.45 951.84L786.48 929.34L786.48 884.34zM825.45 996.84L864.42 1019.34L864.42 1064.34L825.45 1086.84L786.48 1064.34L786.48 1019.34zM903.39 186.84L942.36 209.34L942.36 254.34L903.39 276.84L864.42 254.34L864.42 209.34zM903.39 321.84L942.36 344.34L942.36 389.34L903.39 411.84L864.42 389.34L864.42 344.34zM903.39 456.84L942.36 479.34L942.36 524.34L903.39 546.84L864.42 524.34L864.42 479.34zM864.42 929.34L903.39 951.84L903.39 996.84L864.42 1019.34L825.45 996.84L825.45 951.84zM864.42 1064.34L903.39 1086.84L903.39 1131.84L864.42 1154.34L825.45 1131.84L825.45 1086.84zM981.34 51.84L1020.31 74.34L1020.31 119.34L981.34 141.84L942.36 119.34L942.36 74.34zM942.36 119.34L981.34 141.84L981.34 186.84L942.36 209.34L903.39 186.84L903.39 141.84zM981.34 861.84L1020.31 884.34L1020.31 929.34L981.34 951.84L942.36 929.34L942.36 884.34zM942.36 1064.34L981.34 1086.84L981.34 1131.84L942.36 1154.34L903.39 1131.84L903.39 1086.84zM1059.28 186.84L1098.25 209.34L1098.25 254.34L1059.28 276.84L1020.31 254.34L1020.31 209.34zM1059.28 321.84L1098.25 344.34L1098.25 389.34L1059.28 411.84L1020.31 389.34L1020.31 344.34zM1059.28 591.84L1098.25 614.34L1098.25 659.34L1059.28 681.84L1020.31 659.34L1020.31 614.34zM1059.28 726.84L1098.25 749.34L1098.25 794.34L1059.28 816.84L1020.31 794.34L1020.31 749.34zM1020.31 794.34L1059.28 816.84L1059.28 861.84L1020.31 884.34L981.34 861.84L981.34 816.84zM1059.28 861.84L1098.25 884.34L1098.25 929.34L1059.28 951.84L1020.31 929.34L1020.31 884.34zM1020.31 929.34L1059.28 951.84L1059.28 996.84L1020.31 1019.34L981.34 996.84L981.34 951.84zM1020.31 1064.34L1059.28 1086.84L1059.28 1131.84L1020.31 1154.34L981.34 1131.84L981.34 1086.84zM1098.25 389.34L1137.23 411.84L1137.23 456.84L1098.25 479.34L1059.28 456.84L1059.28 411.84zM1137.23 591.84L1176.2 614.34L1176.2 659.34L1137.23 681.84L1098.25 659.34L1098.25 614.34zM1137.23 861.84L1176.2 884.34L1176.2 929.34L1137.23 951.84L1098.25 929.34L1098.25 884.34zM1098.25 929.34L1137.23 951.84L1137.23 996.84L1098.25 1019.34L1059.28 996.84L1059.28 951.84zM1215.17 186.84L1254.14 209.34L1254.14 254.34L1215.17 276.84L1176.2 254.34L1176.2 209.34zM1176.2 794.34L1215.17 816.84L1215.17 861.84L1176.2 884.34L1137.23 861.84L1137.23 816.84zM1176.2 929.34L1215.17 951.84L1215.17 996.84L1176.2 1019.34L1137.23 996.84L1137.23 951.84zM1176.2 1064.34L1215.17 1086.84L1215.17 1131.84L1176.2 1154.34L1137.23 1131.84L1137.23 1086.84zM1254.14 119.34L1293.11 141.84L1293.11 186.84L1254.14 209.34L1215.17 186.84L1215.17 141.84zM1254.14 389.34L1293.11 411.84L1293.11 456.84L1254.14 479.34L1215.17 456.84L1215.17 411.84zM1293.11 456.84L1332.09 479.34L1332.09 524.34L1293.11 546.84L1254.14 524.34L1254.14 479.34zM1293.11 726.84L1332.09 749.34L1332.09 794.34L1293.11 816.84L1254.14 794.34L1254.14 749.34zM1254.14 794.34L1293.11 816.84L1293.11 861.84L1254.14 884.34L1215.17 861.84L1215.17 816.84zM1293.11 996.84L1332.09 1019.34L1332.09 1064.34L1293.11 1086.84L1254.14 1064.34L1254.14 1019.34zM1371.06 51.84L1410.03 74.34L1410.03 119.34L1371.06 141.84L1332.09 119.34L1332.09 74.34zM1371.06 186.84L1410.03 209.34L1410.03 254.34L1371.06 276.84L1332.09 254.34L1332.09 209.34zM1332.09 254.34L1371.06 276.84L1371.06 321.84L1332.09 344.34L1293.11 321.84L1293.11 276.84zM1332.09 524.34L1371.06 546.84L1371.06 591.84L1332.09 614.34L1293.11 591.84L1293.11 546.84zM1371.06 591.84L1410.03 614.34L1410.03 659.34L1371.06 681.84L1332.09 659.34L1332.09 614.34zM1332.09 929.34L1371.06 951.84L1371.06 996.84L1332.09 1019.34L1293.11 996.84L1293.11 951.84zM1449 186.84L1487.98 209.34L1487.98 254.34L1449 276.84L1410.03 254.34L1410.03 209.34zM1410.03 389.34L1449 411.84L1449 456.84L1410.03 479.34L1371.06 456.84L1371.06 411.84zM1487.98 -15.66L1526.95 6.84L1526.95 51.84L1487.98 74.34L1449 51.84L1449 6.84zM1487.98 119.34L1526.95 141.84L1526.95 186.84L1487.98 209.34L1449 186.84L1449 141.84zM1526.95 186.84L1565.92 209.34L1565.92 254.34L1526.95 276.84L1487.98 254.34L1487.98 209.34zM1526.95 321.84L1565.92 344.34L1565.92 389.34L1526.95 411.84L1487.98 389.34L1487.98 344.34zM1487.98 389.34L1526.95 411.84L1526.95 456.84L1487.98 479.34L1449 456.84L1449 411.84zM1487.98 929.34L1526.95 951.84L1526.95 996.84L1487.98 1019.34L1449 996.84L1449 951.84zM1565.92 119.34L1604.89 141.84L1604.89 186.84L1565.92 209.34L1526.95 186.84L1526.95 141.84zM1604.89 321.84L1643.86 344.34L1643.86 389.34L1604.89 411.84L1565.92 389.34L1565.92 344.34zM1604.89 456.84L1643.86 479.34L1643.86 524.34L1604.89 546.84L1565.92 524.34L1565.92 479.34zM1604.89 861.84L1643.86 884.34L1643.86 929.34L1604.89 951.84L1565.92 929.34L1565.92 884.34zM1565.92 929.34L1604.89 951.84L1604.89 996.84L1565.92 1019.34L1526.95 996.84L1526.95 951.84zM1565.92 1064.34L1604.89 1086.84L1604.89 1131.84L1565.92 1154.34L1526.95 1131.84L1526.95 1086.84zM1682.84 51.84L1721.81 74.34L1721.81 119.34L1682.84 141.84L1643.86 119.34L1643.86 74.34zM1682.84 321.84L1721.81 344.34L1721.81 389.34L1682.84 411.84L1643.86 389.34L1643.86 344.34zM1643.86 389.34L1682.84 411.84L1682.84 456.84L1643.86 479.34L1604.89 456.84L1604.89 411.84zM1682.84 456.84L1721.81 479.34L1721.81 524.34L1682.84 546.84L1643.86 524.34L1643.86 479.34zM1643.86 524.34L1682.84 546.84L1682.84 591.84L1643.86 614.34L1604.89 591.84L1604.89 546.84zM1682.84 591.84L1721.81 614.34L1721.81 659.34L1682.84 681.84L1643.86 659.34L1643.86 614.34zM1643.86 794.34L1682.84 816.84L1682.84 861.84L1643.86 884.34L1604.89 861.84L1604.89 816.84zM1682.84 861.84L1721.81 884.34L1721.81 929.34L1682.84 951.84L1643.86 929.34L1643.86 884.34zM1643.86 1064.34L1682.84 1086.84L1682.84 1131.84L1643.86 1154.34L1604.89 1131.84L1604.89 1086.84zM1760.78 51.84L1799.75 74.34L1799.75 119.34L1760.78 141.84L1721.81 119.34L1721.81 74.34zM1721.81 389.34L1760.78 411.84L1760.78 456.84L1721.81 479.34L1682.84 456.84L1682.84 411.84zM1721.81 794.34L1760.78 816.84L1760.78 861.84L1721.81 884.34L1682.84 861.84L1682.84 816.84zM1760.78 861.84L1799.75 884.34L1799.75 929.34L1760.78 951.84L1721.81 929.34L1721.81 884.34zM1721.81 929.34L1760.78 951.84L1760.78 996.84L1721.81 1019.34L1682.84 996.84L1682.84 951.84zM1799.75 -15.66L1838.73 6.84L1838.73 51.84L1799.75 74.34L1760.78 51.84L1760.78 6.84zM1799.75 119.34L1838.73 141.84L1838.73 186.84L1799.75 209.34L1760.78 186.84L1760.78 141.84zM1799.75 389.34L1838.73 411.84L1838.73 456.84L1799.75 479.34L1760.78 456.84L1760.78 411.84zM1799.75 794.34L1838.73 816.84L1838.73 861.84L1799.75 884.34L1760.78 861.84L1760.78 816.84zM1877.7 -15.66L1916.67 6.84L1916.67 51.84L1877.7 74.34L1838.73 51.84L1838.73 6.84zM1877.7 254.34L1916.67 276.84L1916.67 321.84L1877.7 344.34L1838.73 321.84L1838.73 276.84zM1916.67 456.84L1955.64 479.34L1955.64 524.34L1916.67 546.84L1877.7 524.34L1877.7 479.34zM1916.67 591.84L1955.64 614.34L1955.64 659.34L1916.67 681.84L1877.7 659.34L1877.7 614.34z" stroke="rgba(12, 35, 198, 1)" stroke-width="2"></path></g><defs><mask id="SvgjsMask3117"><rect width="1920" height="1080" fill="#ffffff"></rect></mask><linearGradient x1="10.94%" y1="-19.44%" x2="89.06%" y2="119.44%" gradientUnits="userSpaceOnUse" id="SvgjsLinearGradient3118"><stop stop-color="#0e2a47" offset="0"></stop><stop stop-color="rgba(0, 5, 13, 1)" offset="1"></stop></linearGradient></defs></svg>