<svg xmlns="http://www.w3.org/2000/svg" version="1.1" xmlns:xlink="http://www.w3.org/1999/xlink" xmlns:svgjs="http://svgjs.dev/svgjs" width="1920" height="1080" preserveAspectRatio="none" viewBox="0 0 1920 1080"><g mask="url(&quot;#SvgjsMask3176&quot;)" fill="none"><path d="M134.13 47.66L214.68 94.16L214.68 187.16L134.13 233.66L53.59 187.16L53.59 94.16zM134.13 605.66L214.68 652.16L214.68 745.16L134.13 791.66L53.59 745.16L53.59 652.16zM53.59 745.16L134.13 791.66L134.13 884.66L53.59 931.16L-26.95 884.66L-26.95 791.66zM295.22 326.66L375.76 373.16L375.76 466.16L295.22 512.66L214.68 466.16L214.68 373.16zM214.68 745.16L295.22 791.66L295.22 884.66L214.68 931.16L134.13 884.66L134.13 791.66zM456.3 326.66L536.85 373.16L536.85 466.16L456.3 512.66L375.76 466.16L375.76 373.16zM456.3 605.66L536.85 652.16L536.85 745.16L456.3 791.66L375.76 745.16L375.76 652.16zM456.3 884.66L536.85 931.16L536.85 1024.16L456.3 1070.66L375.76 1024.16L375.76 931.16zM617.39 884.66L697.93 931.16L697.93 1024.16L617.39 1070.66L536.85 1024.16L536.85 931.16zM536.85 1024.16L617.39 1070.66L617.39 1163.66L536.85 1210.16L456.3 1163.66L456.3 1070.66zM697.93 -91.84L778.47 -45.34L778.47 47.66L697.93 94.16L617.39 47.66L617.39 -45.34zM697.93 466.16L778.47 512.66L778.47 605.66L697.93 652.16L617.39 605.66L617.39 512.66zM778.47 605.66L859.02 652.16L859.02 745.16L778.47 791.66L697.93 745.16L697.93 652.16zM939.56 47.66L1020.1 94.16L1020.1 187.16L939.56 233.66L859.02 187.16L859.02 94.16zM859.02 1024.16L939.56 1070.66L939.56 1163.66L859.02 1210.16L778.47 1163.66L778.47 1070.66zM1100.64 326.66L1181.19 373.16L1181.19 466.16L1100.64 512.66L1020.1 466.16L1020.1 373.16zM1181.19 -91.84L1261.73 -45.34L1261.73 47.66L1181.19 94.16L1100.64 47.66L1100.64 -45.34zM1181.19 466.16L1261.73 512.66L1261.73 605.66L1181.19 652.16L1100.64 605.66L1100.64 512.66zM1342.27 466.16L1422.82 512.66L1422.82 605.66L1342.27 652.16L1261.73 605.66L1261.73 512.66zM1422.82 605.66L1503.36 652.16L1503.36 745.16L1422.82 791.66L1342.27 745.16L1342.27 652.16zM1422.82 884.66L1503.36 931.16L1503.36 1024.16L1422.82 1070.66L1342.27 1024.16L1342.27 931.16zM1342.27 1024.16L1422.82 1070.66L1422.82 1163.66L1342.27 1210.16L1261.73 1163.66L1261.73 1070.66zM1503.36 187.16L1583.9 233.66L1583.9 326.66L1503.36 373.16L1422.82 326.66L1422.82 233.66zM1583.9 326.66L1664.44 373.16L1664.44 466.16L1583.9 512.66L1503.36 466.16L1503.36 373.16zM1503.36 466.16L1583.9 512.66L1583.9 605.66L1503.36 652.16L1422.82 605.66L1422.82 512.66zM1664.44 745.16L1744.99 791.66L1744.99 884.66L1664.44 931.16L1583.9 884.66L1583.9 791.66zM1906.07 884.66L1986.61 931.16L1986.61 1024.16L1906.07 1070.66L1825.53 1024.16L1825.53 931.16z" stroke="rgba(37, 37, 131, 1)" stroke-width="2"></path><path d="M42 106.55L80.97 129.05L80.97 174.05L42 196.55L3.03 174.05L3.03 129.05zM42 241.55L80.97 264.05L80.97 309.05L42 331.55L3.03 309.05L3.03 264.05zM42 376.55L80.97 399.05L80.97 444.05L42 466.55L3.03 444.05L3.03 399.05zM42 511.55L80.97 534.05L80.97 579.05L42 601.55L3.03 579.05L3.03 534.05zM80.97 579.05L119.94 601.55L119.94 646.55L80.97 669.05L42 646.55L42 601.55zM42 646.55L80.97 669.05L80.97 714.05L42 736.55L3.03 714.05L3.03 669.05zM42 781.55L80.97 804.05L80.97 849.05L42 871.55L3.03 849.05L3.03 804.05zM42 916.55L80.97 939.05L80.97 984.05L42 1006.55L3.03 984.05L3.03 939.05zM42 1051.55L80.97 1074.05L80.97 1119.05L42 1141.55L3.03 1119.05L3.03 1074.05zM158.92 309.05L197.89 331.55L197.89 376.55L158.92 399.05L119.94 376.55L119.94 331.55zM119.94 376.55L158.92 399.05L158.92 444.05L119.94 466.55L80.97 444.05L80.97 399.05zM119.94 511.55L158.92 534.05L158.92 579.05L119.94 601.55L80.97 579.05L80.97 534.05zM119.94 781.55L158.92 804.05L158.92 849.05L119.94 871.55L80.97 849.05L80.97 804.05zM119.94 916.55L158.92 939.05L158.92 984.05L119.94 1006.55L80.97 984.05L80.97 939.05zM158.92 984.05L197.89 1006.55L197.89 1051.55L158.92 1074.05L119.94 1051.55L119.94 1006.55zM119.94 1051.55L158.92 1074.05L158.92 1119.05L119.94 1141.55L80.97 1119.05L80.97 1074.05zM197.89 -28.45L236.86 -5.95L236.86 39.05L197.89 61.55L158.92 39.05L158.92 -5.95zM236.86 39.05L275.83 61.55L275.83 106.55L236.86 129.05L197.89 106.55L197.89 61.55zM197.89 241.55L236.86 264.05L236.86 309.05L197.89 331.55L158.92 309.05L158.92 264.05zM197.89 376.55L236.86 399.05L236.86 444.05L197.89 466.55L158.92 444.05L158.92 399.05zM236.86 444.05L275.83 466.55L275.83 511.55L236.86 534.05L197.89 511.55L197.89 466.55zM197.89 511.55L236.86 534.05L236.86 579.05L197.89 601.55L158.92 579.05L158.92 534.05zM275.83 -28.45L314.81 -5.95L314.81 39.05L275.83 61.55L236.86 39.05L236.86 -5.95zM275.83 106.55L314.81 129.05L314.81 174.05L275.83 196.55L236.86 174.05L236.86 129.05zM275.83 376.55L314.81 399.05L314.81 444.05L275.83 466.55L236.86 444.05L236.86 399.05zM314.81 444.05L353.78 466.55L353.78 511.55L314.81 534.05L275.83 511.55L275.83 466.55zM275.83 511.55L314.81 534.05L314.81 579.05L275.83 601.55L236.86 579.05L236.86 534.05zM314.81 579.05L353.78 601.55L353.78 646.55L314.81 669.05L275.83 646.55L275.83 601.55zM314.81 714.05L353.78 736.55L353.78 781.55L314.81 804.05L275.83 781.55L275.83 736.55zM275.83 781.55L314.81 804.05L314.81 849.05L275.83 871.55L236.86 849.05L236.86 804.05zM314.81 849.05L353.78 871.55L353.78 916.55L314.81 939.05L275.83 916.55L275.83 871.55zM275.83 916.55L314.81 939.05L314.81 984.05L275.83 1006.55L236.86 984.05L236.86 939.05zM314.81 984.05L353.78 1006.55L353.78 1051.55L314.81 1074.05L275.83 1051.55L275.83 1006.55zM353.78 106.55L392.75 129.05L392.75 174.05L353.78 196.55L314.81 174.05L314.81 129.05zM392.75 309.05L431.72 331.55L431.72 376.55L392.75 399.05L353.78 376.55L353.78 331.55zM353.78 646.55L392.75 669.05L392.75 714.05L353.78 736.55L314.81 714.05L314.81 669.05zM392.75 714.05L431.72 736.55L431.72 781.55L392.75 804.05L353.78 781.55L353.78 736.55zM431.72 -28.45L470.69 -5.95L470.69 39.05L431.72 61.55L392.75 39.05L392.75 -5.95zM470.69 39.05L509.67 61.55L509.67 106.55L470.69 129.05L431.72 106.55L431.72 61.55zM470.69 174.05L509.67 196.55L509.67 241.55L470.69 264.05L431.72 241.55L431.72 196.55zM431.72 376.55L470.69 399.05L470.69 444.05L431.72 466.55L392.75 444.05L392.75 399.05zM470.69 579.05L509.67 601.55L509.67 646.55L470.69 669.05L431.72 646.55L431.72 601.55zM431.72 646.55L470.69 669.05L470.69 714.05L431.72 736.55L392.75 714.05L392.75 669.05zM470.69 714.05L509.67 736.55L509.67 781.55L470.69 804.05L431.72 781.55L431.72 736.55zM509.67 241.55L548.64 264.05L548.64 309.05L509.67 331.55L470.69 309.05L470.69 264.05zM548.64 309.05L587.61 331.55L587.61 376.55L548.64 399.05L509.67 376.55L509.67 331.55zM548.64 444.05L587.61 466.55L587.61 511.55L548.64 534.05L509.67 511.55L509.67 466.55zM509.67 511.55L548.64 534.05L548.64 579.05L509.67 601.55L470.69 579.05L470.69 534.05zM548.64 579.05L587.61 601.55L587.61 646.55L548.64 669.05L509.67 646.55L509.67 601.55zM509.67 646.55L548.64 669.05L548.64 714.05L509.67 736.55L470.69 714.05L470.69 669.05zM548.64 849.05L587.61 871.55L587.61 916.55L548.64 939.05L509.67 916.55L509.67 871.55zM548.64 984.05L587.61 1006.55L587.61 1051.55L548.64 1074.05L509.67 1051.55L509.67 1006.55zM626.58 309.05L665.56 331.55L665.56 376.55L626.58 399.05L587.61 376.55L587.61 331.55zM626.58 444.05L665.56 466.55L665.56 511.55L626.58 534.05L587.61 511.55L587.61 466.55zM626.58 579.05L665.56 601.55L665.56 646.55L626.58 669.05L587.61 646.55L587.61 601.55zM626.58 714.05L665.56 736.55L665.56 781.55L626.58 804.05L587.61 781.55L587.61 736.55zM587.61 781.55L626.58 804.05L626.58 849.05L587.61 871.55L548.64 849.05L548.64 804.05zM587.61 916.55L626.58 939.05L626.58 984.05L587.61 1006.55L548.64 984.05L548.64 939.05zM665.56 106.55L704.53 129.05L704.53 174.05L665.56 196.55L626.58 174.05L626.58 129.05zM665.56 376.55L704.53 399.05L704.53 444.05L665.56 466.55L626.58 444.05L626.58 399.05zM704.53 579.05L743.5 601.55L743.5 646.55L704.53 669.05L665.56 646.55L665.56 601.55zM665.56 916.55L704.53 939.05L704.53 984.05L665.56 1006.55L626.58 984.05L626.58 939.05zM743.5 -28.45L782.47 -5.95L782.47 39.05L743.5 61.55L704.53 39.05L704.53 -5.95zM782.47 39.05L821.45 61.55L821.45 106.55L782.47 129.05L743.5 106.55L743.5 61.55zM782.47 444.05L821.45 466.55L821.45 511.55L782.47 534.05L743.5 511.55L743.5 466.55zM743.5 646.55L782.47 669.05L782.47 714.05L743.5 736.55L704.53 714.05L704.53 669.05zM782.47 714.05L821.45 736.55L821.45 781.55L782.47 804.05L743.5 781.55L743.5 736.55zM782.47 849.05L821.45 871.55L821.45 916.55L782.47 939.05L743.5 916.55L743.5 871.55zM860.42 39.05L899.39 61.55L899.39 106.55L860.42 129.05L821.45 106.55L821.45 61.55zM860.42 174.05L899.39 196.55L899.39 241.55L860.42 264.05L821.45 241.55L821.45 196.55zM821.45 241.55L860.42 264.05L860.42 309.05L821.45 331.55L782.47 309.05L782.47 264.05zM860.42 309.05L899.39 331.55L899.39 376.55L860.42 399.05L821.45 376.55L821.45 331.55zM821.45 376.55L860.42 399.05L860.42 444.05L821.45 466.55L782.47 444.05L782.47 399.05zM860.42 579.05L899.39 601.55L899.39 646.55L860.42 669.05L821.45 646.55L821.45 601.55zM821.45 781.55L860.42 804.05L860.42 849.05L821.45 871.55L782.47 849.05L782.47 804.05zM821.45 916.55L860.42 939.05L860.42 984.05L821.45 1006.55L782.47 984.05L782.47 939.05zM899.39 -28.45L938.36 -5.95L938.36 39.05L899.39 61.55L860.42 39.05L860.42 -5.95zM899.39 106.55L938.36 129.05L938.36 174.05L899.39 196.55L860.42 174.05L860.42 129.05zM938.36 174.05L977.33 196.55L977.33 241.55L938.36 264.05L899.39 241.55L899.39 196.55zM899.39 241.55L938.36 264.05L938.36 309.05L899.39 331.55L860.42 309.05L860.42 264.05zM938.36 309.05L977.33 331.55L977.33 376.55L938.36 399.05L899.39 376.55L899.39 331.55zM899.39 376.55L938.36 399.05L938.36 444.05L899.39 466.55L860.42 444.05L860.42 399.05zM938.36 579.05L977.33 601.55L977.33 646.55L938.36 669.05L899.39 646.55L899.39 601.55zM899.39 646.55L938.36 669.05L938.36 714.05L899.39 736.55L860.42 714.05L860.42 669.05zM899.39 781.55L938.36 804.05L938.36 849.05L899.39 871.55L860.42 849.05L860.42 804.05zM938.36 849.05L977.33 871.55L977.33 916.55L938.36 939.05L899.39 916.55L899.39 871.55zM899.39 916.55L938.36 939.05L938.36 984.05L899.39 1006.55L860.42 984.05L860.42 939.05zM899.39 1051.55L938.36 1074.05L938.36 1119.05L899.39 1141.55L860.42 1119.05L860.42 1074.05zM977.33 -28.45L1016.31 -5.95L1016.31 39.05L977.33 61.55L938.36 39.05L938.36 -5.95zM977.33 106.55L1016.31 129.05L1016.31 174.05L977.33 196.55L938.36 174.05L938.36 129.05zM1016.31 174.05L1055.28 196.55L1055.28 241.55L1016.31 264.05L977.33 241.55L977.33 196.55zM977.33 241.55L1016.31 264.05L1016.31 309.05L977.33 331.55L938.36 309.05L938.36 264.05zM1016.31 309.05L1055.28 331.55L1055.28 376.55L1016.31 399.05L977.33 376.55L977.33 331.55zM977.33 511.55L1016.31 534.05L1016.31 579.05L977.33 601.55L938.36 579.05L938.36 534.05zM1016.31 579.05L1055.28 601.55L1055.28 646.55L1016.31 669.05L977.33 646.55L977.33 601.55zM977.33 646.55L1016.31 669.05L1016.31 714.05L977.33 736.55L938.36 714.05L938.36 669.05zM1016.31 714.05L1055.28 736.55L1055.28 781.55L1016.31 804.05L977.33 781.55L977.33 736.55zM1016.31 849.05L1055.28 871.55L1055.28 916.55L1016.31 939.05L977.33 916.55L977.33 871.55zM1016.31 984.05L1055.28 1006.55L1055.28 1051.55L1016.31 1074.05L977.33 1051.55L977.33 1006.55zM1055.28 -28.45L1094.25 -5.95L1094.25 39.05L1055.28 61.55L1016.31 39.05L1016.31 -5.95zM1094.25 39.05L1133.22 61.55L1133.22 106.55L1094.25 129.05L1055.28 106.55L1055.28 61.55zM1055.28 241.55L1094.25 264.05L1094.25 309.05L1055.28 331.55L1016.31 309.05L1016.31 264.05zM1094.25 309.05L1133.22 331.55L1133.22 376.55L1094.25 399.05L1055.28 376.55L1055.28 331.55zM1055.28 376.55L1094.25 399.05L1094.25 444.05L1055.28 466.55L1016.31 444.05L1016.31 399.05zM1094.25 444.05L1133.22 466.55L1133.22 511.55L1094.25 534.05L1055.28 511.55L1055.28 466.55zM1094.25 579.05L1133.22 601.55L1133.22 646.55L1094.25 669.05L1055.28 646.55L1055.28 601.55zM1055.28 646.55L1094.25 669.05L1094.25 714.05L1055.28 736.55L1016.31 714.05L1016.31 669.05zM1094.25 714.05L1133.22 736.55L1133.22 781.55L1094.25 804.05L1055.28 781.55L1055.28 736.55zM1094.25 849.05L1133.22 871.55L1133.22 916.55L1094.25 939.05L1055.28 916.55L1055.28 871.55zM1094.25 984.05L1133.22 1006.55L1133.22 1051.55L1094.25 1074.05L1055.28 1051.55L1055.28 1006.55zM1055.28 1051.55L1094.25 1074.05L1094.25 1119.05L1055.28 1141.55L1016.31 1119.05L1016.31 1074.05zM1133.22 -28.45L1172.2 -5.95L1172.2 39.05L1133.22 61.55L1094.25 39.05L1094.25 -5.95zM1133.22 106.55L1172.2 129.05L1172.2 174.05L1133.22 196.55L1094.25 174.05L1094.25 129.05zM1133.22 241.55L1172.2 264.05L1172.2 309.05L1133.22 331.55L1094.25 309.05L1094.25 264.05zM1133.22 376.55L1172.2 399.05L1172.2 444.05L1133.22 466.55L1094.25 444.05L1094.25 399.05zM1172.2 444.05L1211.17 466.55L1211.17 511.55L1172.2 534.05L1133.22 511.55L1133.22 466.55zM1172.2 714.05L1211.17 736.55L1211.17 781.55L1172.2 804.05L1133.22 781.55L1133.22 736.55zM1172.2 849.05L1211.17 871.55L1211.17 916.55L1172.2 939.05L1133.22 916.55L1133.22 871.55zM1133.22 916.55L1172.2 939.05L1172.2 984.05L1133.22 1006.55L1094.25 984.05L1094.25 939.05zM1172.2 984.05L1211.17 1006.55L1211.17 1051.55L1172.2 1074.05L1133.22 1051.55L1133.22 1006.55zM1250.14 174.05L1289.11 196.55L1289.11 241.55L1250.14 264.05L1211.17 241.55L1211.17 196.55zM1211.17 241.55L1250.14 264.05L1250.14 309.05L1211.17 331.55L1172.2 309.05L1172.2 264.05zM1250.14 444.05L1289.11 466.55L1289.11 511.55L1250.14 534.05L1211.17 511.55L1211.17 466.55zM1250.14 849.05L1289.11 871.55L1289.11 916.55L1250.14 939.05L1211.17 916.55L1211.17 871.55zM1289.11 -28.45L1328.08 -5.95L1328.08 39.05L1289.11 61.55L1250.14 39.05L1250.14 -5.95zM1289.11 106.55L1328.08 129.05L1328.08 174.05L1289.11 196.55L1250.14 174.05L1250.14 129.05zM1328.08 174.05L1367.06 196.55L1367.06 241.55L1328.08 264.05L1289.11 241.55L1289.11 196.55zM1289.11 241.55L1328.08 264.05L1328.08 309.05L1289.11 331.55L1250.14 309.05L1250.14 264.05zM1328.08 309.05L1367.06 331.55L1367.06 376.55L1328.08 399.05L1289.11 376.55L1289.11 331.55zM1328.08 444.05L1367.06 466.55L1367.06 511.55L1328.08 534.05L1289.11 511.55L1289.11 466.55zM1289.11 511.55L1328.08 534.05L1328.08 579.05L1289.11 601.55L1250.14 579.05L1250.14 534.05zM1328.08 714.05L1367.06 736.55L1367.06 781.55L1328.08 804.05L1289.11 781.55L1289.11 736.55zM1328.08 849.05L1367.06 871.55L1367.06 916.55L1328.08 939.05L1289.11 916.55L1289.11 871.55zM1406.03 39.05L1445 61.55L1445 106.55L1406.03 129.05L1367.06 106.55L1367.06 61.55zM1406.03 174.05L1445 196.55L1445 241.55L1406.03 264.05L1367.06 241.55L1367.06 196.55zM1406.03 579.05L1445 601.55L1445 646.55L1406.03 669.05L1367.06 646.55L1367.06 601.55zM1406.03 714.05L1445 736.55L1445 781.55L1406.03 804.05L1367.06 781.55L1367.06 736.55zM1367.06 781.55L1406.03 804.05L1406.03 849.05L1367.06 871.55L1328.08 849.05L1328.08 804.05zM1367.06 916.55L1406.03 939.05L1406.03 984.05L1367.06 1006.55L1328.08 984.05L1328.08 939.05zM1483.97 39.05L1522.95 61.55L1522.95 106.55L1483.97 129.05L1445 106.55L1445 61.55zM1483.97 174.05L1522.95 196.55L1522.95 241.55L1483.97 264.05L1445 241.55L1445 196.55zM1445 241.55L1483.97 264.05L1483.97 309.05L1445 331.55L1406.03 309.05L1406.03 264.05zM1445 376.55L1483.97 399.05L1483.97 444.05L1445 466.55L1406.03 444.05L1406.03 399.05zM1445 646.55L1483.97 669.05L1483.97 714.05L1445 736.55L1406.03 714.05L1406.03 669.05zM1483.97 849.05L1522.95 871.55L1522.95 916.55L1483.97 939.05L1445 916.55L1445 871.55zM1445 1051.55L1483.97 1074.05L1483.97 1119.05L1445 1141.55L1406.03 1119.05L1406.03 1074.05zM1561.92 39.05L1600.89 61.55L1600.89 106.55L1561.92 129.05L1522.95 106.55L1522.95 61.55zM1561.92 444.05L1600.89 466.55L1600.89 511.55L1561.92 534.05L1522.95 511.55L1522.95 466.55zM1561.92 579.05L1600.89 601.55L1600.89 646.55L1561.92 669.05L1522.95 646.55L1522.95 601.55zM1561.92 714.05L1600.89 736.55L1600.89 781.55L1561.92 804.05L1522.95 781.55L1522.95 736.55zM1522.95 781.55L1561.92 804.05L1561.92 849.05L1522.95 871.55L1483.97 849.05L1483.97 804.05zM1522.95 916.55L1561.92 939.05L1561.92 984.05L1522.95 1006.55L1483.97 984.05L1483.97 939.05zM1561.92 984.05L1600.89 1006.55L1600.89 1051.55L1561.92 1074.05L1522.95 1051.55L1522.95 1006.55zM1522.95 1051.55L1561.92 1074.05L1561.92 1119.05L1522.95 1141.55L1483.97 1119.05L1483.97 1074.05zM1600.89 106.55L1639.86 129.05L1639.86 174.05L1600.89 196.55L1561.92 174.05L1561.92 129.05zM1600.89 241.55L1639.86 264.05L1639.86 309.05L1600.89 331.55L1561.92 309.05L1561.92 264.05zM1639.86 444.05L1678.83 466.55L1678.83 511.55L1639.86 534.05L1600.89 511.55L1600.89 466.55zM1639.86 579.05L1678.83 601.55L1678.83 646.55L1639.86 669.05L1600.89 646.55L1600.89 601.55zM1600.89 916.55L1639.86 939.05L1639.86 984.05L1600.89 1006.55L1561.92 984.05L1561.92 939.05zM1600.89 1051.55L1639.86 1074.05L1639.86 1119.05L1600.89 1141.55L1561.92 1119.05L1561.92 1074.05zM1678.83 -28.45L1717.81 -5.95L1717.81 39.05L1678.83 61.55L1639.86 39.05L1639.86 -5.95zM1717.81 174.05L1756.78 196.55L1756.78 241.55L1717.81 264.05L1678.83 241.55L1678.83 196.55zM1678.83 376.55L1717.81 399.05L1717.81 444.05L1678.83 466.55L1639.86 444.05L1639.86 399.05zM1678.83 511.55L1717.81 534.05L1717.81 579.05L1678.83 601.55L1639.86 579.05L1639.86 534.05zM1678.83 646.55L1717.81 669.05L1717.81 714.05L1678.83 736.55L1639.86 714.05L1639.86 669.05zM1717.81 849.05L1756.78 871.55L1756.78 916.55L1717.81 939.05L1678.83 916.55L1678.83 871.55zM1678.83 1051.55L1717.81 1074.05L1717.81 1119.05L1678.83 1141.55L1639.86 1119.05L1639.86 1074.05zM1756.78 106.55L1795.75 129.05L1795.75 174.05L1756.78 196.55L1717.81 174.05L1717.81 129.05zM1795.75 309.05L1834.72 331.55L1834.72 376.55L1795.75 399.05L1756.78 376.55L1756.78 331.55zM1756.78 376.55L1795.75 399.05L1795.75 444.05L1756.78 466.55L1717.81 444.05L1717.81 399.05zM1795.75 444.05L1834.72 466.55L1834.72 511.55L1795.75 534.05L1756.78 511.55L1756.78 466.55zM1756.78 511.55L1795.75 534.05L1795.75 579.05L1756.78 601.55L1717.81 579.05L1717.81 534.05zM1795.75 984.05L1834.72 1006.55L1834.72 1051.55L1795.75 1074.05L1756.78 1051.55L1756.78 1006.55zM1756.78 1051.55L1795.75 1074.05L1795.75 1119.05L1756.78 1141.55L1717.81 1119.05L1717.81 1074.05zM1873.7 39.05L1912.67 61.55L1912.67 106.55L1873.7 129.05L1834.72 106.55L1834.72 61.55zM1873.7 174.05L1912.67 196.55L1912.67 241.55L1873.7 264.05L1834.72 241.55L1834.72 196.55zM1873.7 309.05L1912.67 331.55L1912.67 376.55L1873.7 399.05L1834.72 376.55L1834.72 331.55zM1834.72 376.55L1873.7 399.05L1873.7 444.05L1834.72 466.55L1795.75 444.05L1795.75 399.05zM1873.7 444.05L1912.67 466.55L1912.67 511.55L1873.7 534.05L1834.72 511.55L1834.72 466.55zM1834.72 511.55L1873.7 534.05L1873.7 579.05L1834.72 601.55L1795.75 579.05L1795.75 534.05zM1834.72 646.55L1873.7 669.05L1873.7 714.05L1834.72 736.55L1795.75 714.05L1795.75 669.05zM1834.72 781.55L1873.7 804.05L1873.7 849.05L1834.72 871.55L1795.75 849.05L1795.75 804.05zM1951.64 39.05L1990.61 61.55L1990.61 106.55L1951.64 129.05L1912.67 106.55L1912.67 61.55zM1951.64 174.05L1990.61 196.55L1990.61 241.55L1951.64 264.05L1912.67 241.55L1912.67 196.55zM1912.67 511.55L1951.64 534.05L1951.64 579.05L1912.67 601.55L1873.7 579.05L1873.7 534.05zM1951.64 849.05L1990.61 871.55L1990.61 916.55L1951.64 939.05L1912.67 916.55L1912.67 871.55zM1912.67 916.55L1951.64 939.05L1951.64 984.05L1912.67 1006.55L1873.7 984.05L1873.7 939.05z" stroke="rgba(0, 0, 0, 0)" stroke-width="2"></path></g><defs><mask id="SvgjsMask3176"><rect width="1920" height="1080" fill="#ffffff"></rect></mask></defs></svg>